<svg width="20" height="27" viewBox="0 0 20 27" fill="none" xmlns="http://www.w3.org/2000/svg">
<path d="M10 20C9.33696 20 8.70107 19.7366 8.23223 19.2678C7.76339 18.7989 7.5 18.163 7.5 17.5C7.5 16.1125 8.6125 15 10 15C10.663 15 11.2989 15.2634 11.7678 15.7322C12.2366 16.2011 12.5 16.837 12.5 17.5C12.5 18.163 12.2366 18.7989 11.7678 19.2678C11.2989 19.7366 10.663 20 10 20ZM17.5 23.75V11.25H2.5V23.75H17.5ZM17.5 8.75C18.163 8.75 18.7989 9.01339 19.2678 9.48223C19.7366 9.95107 20 10.587 20 11.25V23.75C20 24.413 19.7366 25.0489 19.2678 25.5178C18.7989 25.9866 18.163 26.25 17.5 26.25H2.5C1.83696 26.25 1.20107 25.9866 0.732233 25.5178C0.263392 25.0489 0 24.413 0 23.75V11.25C0 9.8625 1.1125 8.75 2.5 8.75H3.75V6.25C3.75 4.5924 4.40848 3.00269 5.58058 1.83058C6.75269 0.65848 8.3424 0 10 0C10.8208 0 11.6335 0.161661 12.3918 0.475753C13.1501 0.789845 13.8391 1.25022 14.4194 1.83058C14.9998 2.41095 15.4602 3.09994 15.7742 3.85823C16.0883 4.61651 16.25 5.42924 16.25 6.25V8.75H17.5ZM10 2.5C9.00544 2.5 8.05161 2.89509 7.34835 3.59835C6.64509 4.30161 6.25 5.25544 6.25 6.25V8.75H13.75V6.25C13.75 5.25544 13.3549 4.30161 12.6517 3.59835C11.9484 2.89509 10.9946 2.5 10 2.5Z" fill="#585858"/>
</svg>
