<svg width="16" height="16" viewBox="0 0 16 16" fill="none" xmlns="http://www.w3.org/2000/svg">
<path d="M13.867 16C13.797 16.0001 13.7276 15.9829 13.6629 15.9494C13.5982 15.9158 13.5395 15.8665 13.4901 15.8044L1.75696 1.1267C1.66117 1.00056 1.60855 0.832601 1.61033 0.658629C1.61211 0.484656 1.66815 0.318436 1.76649 0.195409C1.86484 0.0723823 1.99771 0.00228214 2.13678 5.47422e-05C2.27585 -0.00217265 2.41012 0.0636491 2.51095 0.183486L14.244 14.8612C14.3186 14.9545 14.3693 15.0734 14.3899 15.2028C14.4104 15.3321 14.3999 15.4662 14.3595 15.5881C14.3192 15.71 14.2509 15.8141 14.1632 15.8875C14.0756 15.9608 13.9725 15.9999 13.867 16ZM7.98917 13.3313C6.6062 13.3313 5.27256 12.8193 4.02525 11.8093C2.88961 10.892 1.86729 9.57807 1.06864 8.01481V8.01147C1.7333 6.82016 2.46128 5.81273 3.24327 5.00045C3.25034 4.99305 3.25611 4.9839 3.26021 4.97357C3.26431 4.96324 3.26666 4.95196 3.2671 4.94044C3.26753 4.92892 3.26606 4.91741 3.26276 4.90663C3.25946 4.89586 3.25441 4.88607 3.24793 4.87786L2.58395 4.04848C2.57215 4.0336 2.5563 4.02482 2.53956 4.0239C2.52282 4.02297 2.50642 4.02996 2.49361 4.04348C1.66296 4.91914 0.89198 5.99328 0.190994 7.2509C0.0703916 7.46744 0.00397103 7.72394 0.000172541 7.98782C-0.00362595 8.25169 0.0553692 8.51102 0.169661 8.73285C1.04998 10.4562 2.18295 11.9077 3.44559 12.9298C4.86723 14.0819 6.3972 14.6657 7.98917 14.6657C8.84847 14.6623 9.70169 14.4852 10.5158 14.1411C10.5265 14.1365 10.5362 14.1286 10.5438 14.1181C10.5514 14.1076 10.5567 14.0948 10.5593 14.081C10.5619 14.0672 10.5616 14.0528 10.5585 14.0391C10.5553 14.0255 10.5495 14.0131 10.5415 14.0031L9.82213 13.1032C9.80557 13.083 9.7851 13.0686 9.76271 13.0612C9.74033 13.0539 9.71681 13.054 9.69447 13.0615C9.13739 13.241 8.56442 13.3316 7.98917 13.3313ZM15.8283 7.26841C14.9464 5.56213 13.8021 4.1127 12.5194 3.0765C11.1004 1.92897 9.5338 1.32226 7.98917 1.32226C7.13898 1.32415 6.2951 1.505 5.49289 1.85725C5.4822 1.8619 5.47263 1.86988 5.46509 1.88044C5.45755 1.89099 5.45228 1.90378 5.44978 1.91758C5.44728 1.93139 5.44763 1.94577 5.4508 1.95936C5.45396 1.97295 5.45985 1.98531 5.46789 1.99527L6.18621 2.89386C6.20293 2.91443 6.22369 2.92911 6.2464 2.93643C6.2691 2.94375 6.29295 2.94345 6.31554 2.93556C6.86118 2.75091 7.42391 2.65712 7.98917 2.6566C9.34547 2.6566 10.6751 3.17491 11.9408 4.19943C13.0977 5.13347 14.132 6.44613 14.9327 7.99396C14.9333 7.99491 14.9336 7.99609 14.9336 7.9973C14.9336 7.9985 14.9333 7.99968 14.9327 8.00063C14.3515 9.14521 13.6303 10.1686 12.7954 11.0333C12.7883 11.0407 12.7824 11.0499 12.7782 11.0602C12.7741 11.0706 12.7717 11.0819 12.7712 11.0935C12.7707 11.105 12.7722 11.1166 12.7755 11.1274C12.7788 11.1383 12.7839 11.1481 12.7904 11.1563L13.4537 11.9857C13.4655 12.0005 13.4812 12.0093 13.4979 12.0103C13.5145 12.0113 13.5309 12.0045 13.5437 11.9911C14.435 11.0523 15.2066 9.94878 15.8317 8.71867C15.9422 8.50191 16.0006 8.25002 16 7.99293C15.9994 7.73585 15.9398 7.48438 15.8283 7.26841Z" fill="#AFAFAF"/>
<path d="M8.0005 3.99094C7.76081 3.99078 7.52187 4.02435 7.28818 4.09102C7.27638 4.09408 7.26546 4.10109 7.25659 4.11131C7.24772 4.12152 7.24123 4.13455 7.23781 4.14901C7.23439 4.16347 7.23417 4.17882 7.23717 4.19343C7.24017 4.20803 7.24628 4.22135 7.25485 4.23196L11.0078 8.9255C11.0163 8.93622 11.0269 8.94386 11.0386 8.94761C11.0502 8.95137 11.0625 8.95109 11.0741 8.94681C11.0856 8.94253 11.0961 8.93441 11.1042 8.92332C11.1124 8.91222 11.118 8.89856 11.1204 8.8838C11.2273 8.29754 11.2272 7.6887 11.1201 7.1025C11.0131 6.51629 10.8019 5.96779 10.5021 5.49772C10.2024 5.02765 9.82184 4.64809 9.38875 4.38724C8.95567 4.12638 8.48117 3.99093 8.0005 3.99094ZM4.99323 7.06242C4.98475 7.0517 4.97411 7.04406 4.96243 7.04031C4.95076 7.03655 4.93849 7.03683 4.92693 7.04111C4.91537 7.04539 4.90495 7.05351 4.89679 7.0646C4.88862 7.0757 4.88302 7.08936 4.88057 7.10412C4.75968 7.76477 4.77486 8.45299 4.92468 9.10429C5.0745 9.75559 5.35405 10.3486 5.73713 10.8279C6.12022 11.3071 6.59429 11.6568 7.11493 11.8442C7.63556 12.0316 8.18572 12.0506 8.71382 11.8994C8.72562 11.8963 8.73654 11.8893 8.74541 11.8791C8.75428 11.8689 8.76077 11.8559 8.76419 11.8414C8.76761 11.827 8.76784 11.8116 8.76483 11.797C8.76183 11.7824 8.75572 11.7691 8.74715 11.7585L4.99323 7.06242Z" fill="#AFAFAF"/>
</svg>
