<svg width="16" height="21" viewBox="0 0 16 21" fill="none" xmlns="http://www.w3.org/2000/svg">
<path d="M8 3C3.576 3 0 6.576 0 11C0 15.424 3.576 19 8 19C12.424 19 16 15.424 16 11C16 6.576 12.424 3 8 3ZM11.44 14.44C11.366 14.5142 11.2781 14.573 11.1813 14.6131C11.0845 14.6533 10.9808 14.674 10.876 14.674C10.7712 14.674 10.6675 14.6533 10.5707 14.6131C10.4739 14.573 10.386 14.5142 10.312 14.44L8 12.128L5.688 14.44C5.53842 14.5896 5.33554 14.6736 5.124 14.6736C4.91246 14.6736 4.70958 14.5896 4.56 14.44C4.41042 14.2904 4.32638 14.0875 4.32638 13.876C4.32638 13.7713 4.34701 13.6675 4.3871 13.5708C4.42718 13.474 4.48593 13.3861 4.56 13.312L6.872 11L4.56 8.688C4.41042 8.53842 4.32638 8.33554 4.32638 8.124C4.32638 7.91246 4.41042 7.70958 4.56 7.56C4.70958 7.41042 4.91246 7.32638 5.124 7.32638C5.33554 7.32638 5.53842 7.41042 5.688 7.56L8 9.872L10.312 7.56C10.3861 7.48593 10.474 7.42718 10.5708 7.3871C10.6675 7.34701 10.7713 7.32638 10.876 7.32638C10.9807 7.32638 11.0845 7.34701 11.1812 7.3871C11.278 7.42718 11.3659 7.48593 11.44 7.56C11.5141 7.63407 11.5728 7.72199 11.6129 7.81877C11.653 7.91554 11.6736 8.01926 11.6736 8.124C11.6736 8.22874 11.653 8.33246 11.6129 8.42923C11.5728 8.52601 11.5141 8.61393 11.44 8.688L9.128 11L11.44 13.312C11.744 13.616 11.744 14.128 11.44 14.44Z" fill="#AFAFAF"/>
</svg>
